<svg width="210mm" height="297mm" viewBox="0 0 210 297"><g fill="none" stroke="#000" stroke-width=".266"><path d="M21.1 111.012c-1.755 24.926-3.509 49.851-7.755 57.283-4.247 7.431-10.986-2.631-7.386-7.801 3.6-5.17 17.54-5.447 27.065-3.117 9.525 2.33 14.634 7.268 19.743 12.206M77.273 157.395c-1.2-5.77-12.832-8.078-17.448-3.462s-2.215 16.156 3.6 17.31c5.817 1.154 15.048-8.078 13.848-13.848z" stroke-width=".6093395"/><path d="M95.902 151.8c-4.027-.606-8.054-1.21-10.305 1.39-2.25 2.601-2.725 8.409-.962 12.413 1.763 4.004 5.765 6.205 8.416 3.354 2.651-2.852 3.952-10.755 4.202-12.606.25-1.85-.55 2.351 1.065 5.525 1.616 3.174 5.647 5.32 9.68 7.465" stroke-width=".67791164"/><path d="M118.222 156.176c-1.709-.81-3.417-1.618-4.721-1.483-1.304.134-2.203 1.213-2.518 3.911-.315 2.698-.045 7.014 1.124 9.532 1.17 2.518 3.237 3.237 4.676-2.113s2.248-16.77 2.923-23.695c.674-6.924 1.214-9.352 1.438-11.15.225-1.799.135-2.968.27-1.889.135 1.08.495 4.407.72 8.993.224 4.586.314 10.43 1.079 15.781.764 5.35 2.203 10.206 3.866 12.814 1.664 2.608 3.552 2.967 5.44 3.327M135.721 170.093c1.889-2.158 3.777-4.316 4.676-6.744.9-2.428.81-5.126.89-7.914.08-2.787.33-5.665.33-6.834 0-1.169-.25-.63-.24 1.754.009 2.383.28 6.61 1.268 10.116.99 3.507 2.698 6.295 4.002 7.823 1.304 1.53 2.203 1.799 3.102 2.069M150.954 149.628c1.075 1.935 2.15 3.871 2.85 6.075.698 2.205 1.021 4.678 1.612 7.527.592 2.85 1.452 6.075 2.957 4.247 1.506-1.827 3.656-8.71 5.215-12.419 1.56-3.71 2.527-4.247 4.355-.699 1.828 3.549 4.516 11.183 7.205 18.817M188.373 148.66c-4.516 5.592-9.032 11.183-8.978 13.334.054 2.15 4.677.86 6.935-.968 2.259-1.828 2.151-4.194 1.936-4.247-.215-.054-.538 2.204-.484 7.957.054 5.752.484 15-1.828 18.87-2.312 3.872-7.365 2.366-4.624-4.354 2.742-6.72 13.28-18.656 23.818-30.592" stroke-width=".6093395"/></g></svg>