<?xml version="1.0" encoding="UTF-8" standalone="no"?>
<!-- Created with Inkscape (http://www.inkscape.org/) -->

<svg
   width="210mm"
   height="297mm"
   viewBox="0 0 210 297"
   version="1.1"
   id="svg1"
   inkscape:version="1.4 (86a8ad7, 2024-10-11)"
   sodipodi:docname="loader-new.svg"
   xmlns:inkscape="http://www.inkscape.org/namespaces/inkscape"
   xmlns:sodipodi="http://sodipodi.sourceforge.net/DTD/sodipodi-0.dtd"
   xmlns="http://www.w3.org/2000/svg"
   xmlns:svg="http://www.w3.org/2000/svg">
  <sodipodi:namedview
     id="namedview1"
     pagecolor="#ffffff"
     bordercolor="#000000"
     borderopacity="0.25"
     inkscape:showpageshadow="2"
     inkscape:pageopacity="0.0"
     inkscape:pagecheckerboard="0"
     inkscape:deskcolor="#d1d1d1"
     inkscape:document-units="mm"
     showgrid="false"
     inkscape:zoom="0.46972069"
     inkscape:cx="13.838011"
     inkscape:cy="653.57989"
     inkscape:window-width="1440"
     inkscape:window-height="890"
     inkscape:window-x="-6"
     inkscape:window-y="-6"
     inkscape:window-maximized="1"
     inkscape:current-layer="layer1">
    <inkscape:grid
       id="grid7"
       units="mm"
       originx="0"
       originy="0"
       spacingx="0.99999998"
       spacingy="1"
       empcolor="#0099e5"
       empopacity="0.30196078"
       color="#0099e5"
       opacity="0.14901961"
       empspacing="5"
       enabled="true"
       visible="false" />
  </sodipodi:namedview>
  <defs
     id="defs1">
    <inkscape:path-effect
       effect="bspline"
       id="path-effect7"
       is_visible="true"
       lpeversion="1.3"
       weight="33.333333"
       steps="2"
       helper_size="0"
       apply_no_weight="true"
       apply_with_weight="true"
       only_selected="false"
       uniform="false" />
    <inkscape:path-effect
       effect="bspline"
       id="path-effect6"
       is_visible="true"
       lpeversion="1.3"
       weight="33.333333"
       steps="2"
       helper_size="0"
       apply_no_weight="true"
       apply_with_weight="true"
       only_selected="false"
       uniform="false" />
    <inkscape:path-effect
       effect="bspline"
       id="path-effect5"
       is_visible="true"
       lpeversion="1.3"
       weight="33.333333"
       steps="2"
       helper_size="0"
       apply_no_weight="true"
       apply_with_weight="true"
       only_selected="false"
       uniform="false" />
    <inkscape:path-effect
       effect="bspline"
       id="path-effect4"
       is_visible="true"
       lpeversion="1.3"
       weight="33.333333"
       steps="2"
       helper_size="0"
       apply_no_weight="true"
       apply_with_weight="true"
       only_selected="false"
       uniform="false" />
    <inkscape:path-effect
       effect="bspline"
       id="path-effect3"
       is_visible="true"
       lpeversion="1.3"
       weight="33.333333"
       steps="2"
       helper_size="0"
       apply_no_weight="true"
       apply_with_weight="true"
       only_selected="false"
       uniform="false" />
    <inkscape:path-effect
       effect="bspline"
       id="path-effect2"
       is_visible="true"
       lpeversion="1.3"
       weight="33.333333"
       steps="2"
       helper_size="0"
       apply_no_weight="true"
       apply_with_weight="true"
       only_selected="false"
       uniform="false" />
    <inkscape:path-effect
       effect="bspline"
       id="path-effect1"
       is_visible="true"
       lpeversion="1.3"
       weight="33.333333"
       steps="2"
       helper_size="0"
       apply_no_weight="true"
       apply_with_weight="true"
       only_selected="false"
       uniform="false" />
  </defs>
  <g
     inkscape:label="Layer 1"
     inkscape:groupmode="layer"
     id="layer1">
    <g
       id="g7"
       transform="matrix(2.290747,0,0,2.290747,-153.24068,-218.4379)"
       style="stroke:#000000;stroke-opacity:1;stroke-width:0.65480824;stroke-dasharray:none">
      <path
         style="fill:none;stroke:#000000;stroke-width:0.65480824;stroke-linecap:butt;stroke-linejoin:miter;stroke-dasharray:none;stroke-opacity:1"
         d="m 75.683805,147.61969 c -0.765704,10.88106 -1.531408,21.76212 -3.385219,25.00629 -1.853811,3.24416 -4.795724,-1.14856 -3.224016,-3.40538 1.571708,-2.25681 7.657041,-2.37771 11.814833,-1.36048 4.157792,1.01724 6.388046,3.17261 8.618299,5.32798"
         id="path1"
         sodipodi:nodetypes="ccccc"
         transform="translate(0.4224585,-3.8021265)" />
      <path
         style="fill:none;stroke:#000000;stroke-width:0.65480824;stroke-linecap:butt;stroke-linejoin:miter;stroke-dasharray:none;stroke-opacity:1"
         d="m 105.82836,165.45253 c -0.5239,-2.51876 -5.60173,-3.52627 -7.616735,-1.51125 -2.01501,2.01501 -0.967205,7.05253 1.57171,7.55628 2.538915,0.50375 6.568935,-3.52626 6.045025,-6.04503 z"
         id="path2"
         sodipodi:nodetypes="cccc"
         transform="translate(-5.2001154,-1.3868886)" />
      <path
         style="fill:none;stroke:#000000;stroke-width:0.588573;stroke-linecap:butt;stroke-linejoin:miter;stroke-dasharray:none;stroke-opacity:1"
         d="m 108.81429,163.6925 c -1.58007,-0.23739 -3.16015,-0.47478 -4.04338,0.54584 -0.88324,1.02063 -1.06962,3.29926 -0.37772,4.87039 0.6919,1.57113 2.26209,2.43473 3.30234,1.31597 1.04025,-1.11876 1.55057,-4.21988 1.6487,-4.9461 0.0981,-0.72621 -0.2159,0.92249 0.41806,2.16782 0.63395,1.24533 2.21589,2.08731 3.79782,2.92928"
         id="path3"
         sodipodi:nodetypes="ccccccc"
         transform="matrix(1.1125353,0,0,1.1125353,-12.299199,-20.490777)" />
      <path
         style="fill:none;stroke:#000000;stroke-width:0.65480824;stroke-linecap:butt;stroke-linejoin:miter;stroke-dasharray:none;stroke-opacity:1"
         d="m 121.17956,165.22344 c -0.74584,-0.35329 -1.49168,-0.70658 -2.06088,-0.6477 -0.5692,0.0589 -0.96175,0.52994 -1.09914,1.70758 -0.13739,1.17764 -0.0196,3.06187 0.49069,4.16101 0.51031,1.09913 1.41318,1.41317 2.04125,-0.92249 0.62808,-2.33566 0.98137,-7.32102 1.27578,-10.34364 0.29442,-3.02262 0.52994,-4.0825 0.62808,-4.8676 0.0981,-0.78509 0.0589,-1.2954 0.11776,-0.82435 0.0589,0.47106 0.2159,1.92349 0.31404,3.92549 0.0981,2.00199 0.13739,4.55355 0.47106,6.88921 0.33367,2.33566 0.96174,4.45542 1.68796,5.59381 0.72621,1.13839 1.55056,1.29541 2.37491,1.45243"
         id="path4"
         transform="translate(-2.6755705,-1.689834)" />
      <path
         style="fill:none;stroke:#000000;stroke-width:0.65480824;stroke-linecap:butt;stroke-linejoin:miter;stroke-dasharray:none;stroke-opacity:1"
         d="m 131.07177,170.87613 c 0.82435,-0.94212 1.6487,-1.88423 2.04125,-2.94411 0.39255,-1.05988 0.35329,-2.23752 0.38829,-3.45442 0.035,-1.2169 0.14425,-2.47305 0.14425,-2.98336 0,-0.51032 -0.10925,-0.27479 -0.10499,0.76546 0.004,1.04026 0.12202,2.88523 0.55382,4.41617 0.4318,1.53093 1.17764,2.74783 1.74683,3.41516 0.5692,0.66734 0.96175,0.7851 1.3543,0.90287"
         id="path5"
         transform="translate(-4.9286825,-1.2673755)"
         sodipodi:nodetypes="cccccccc" />
      <path
         style="fill:none;stroke:#000000;stroke-width:0.65480824;stroke-linecap:butt;stroke-linejoin:miter;stroke-dasharray:none;stroke-opacity:1"
         d="m 139.69294,161.66079 c 0.4694,0.84491 0.9388,1.68983 1.24391,2.6521 0.30511,0.96226 0.44593,2.04188 0.7041,3.28578 0.25817,1.24391 0.63368,2.6521 1.29084,1.85412 0.65716,-0.79797 1.59595,-3.80212 2.27658,-5.42155 0.68063,-1.61942 1.10309,-1.85412 1.90107,-0.30511 0.79797,1.54902 1.97147,4.88175 3.14496,8.21448"
         id="path6"
         transform="translate(-6.9001555,-0.98573651)"
         sodipodi:nodetypes="ccccccc" />
      <path
         style="fill:none;stroke:#000000;stroke-width:0.65480824;stroke-linecap:butt;stroke-linejoin:miter;stroke-dasharray:none;stroke-opacity:1"
         d="m 159.12603,161.94242 c -1.97147,2.44087 -3.94294,4.88175 -3.91947,5.82054 0.0235,0.9388 2.04188,0.37552 3.02762,-0.42245 0.98573,-0.79798 0.93879,-1.83066 0.84491,-1.85413 -0.0939,-0.0235 -0.2347,0.96227 -0.21123,3.47355 0.0235,2.51128 0.21123,6.54811 -0.79798,8.23794 -1.0092,1.68983 -3.21537,1.03268 -2.0184,-1.90106 1.19696,-2.93374 5.79706,-8.14406 10.39717,-13.35439"
         id="path7"
         transform="translate(-9.9981846,-1.689834)" />
    </g>
  </g>
</svg>
